{"title":"The Neighbor 2007","uid":6157698,"size":733950004,"categoryP":"video","categoryS":"movies","magnet":"?xt=urn:btih:de3f1853131272c7b62f48e16023707b9efb247f&amp;dn=The+Neighbor+2007&amp;tr=udp%3A%2F%2Ftracker.openbittorrent.com%3A80&amp;tr=udp%3A%2F%2Fopen.demonii.com%3A1337&amp;tr=udp%3A%2F%2Ftracker.coppersurfer.tk%3A6969&amp;tr=udp%3A%2F%2Fexodus.desync.com%3A6969","seeders":0,"leechers":3,"uploader":"bgnight","files":-1,"time":1297097492,"description":"The.Neighbor.(2007).DVDRip.XviD\n &lt;a href=&quot;\nhttp://www.imdb.com/title/tt0978670/&quot; rel=&quot;nofollow&quot; target=&quot;_NEW&quot;&gt;\nhttp://www.imdb.com/title/tt0978670/&lt;/a&gt;\n\nGenres: Comedy | Romance\n\nStoryline\nA guy whose life is in turmoil falls for an attractive real estate broker who moves into the condo next door, but doesnt realize that she expects him to move out for her planned renovation.\n\nFormat                           : AVI\nFile size                        : 700 MiB\nDuration                         : 1h 33mn\nOverall bit rate                 : 1 042 Kbps\n\nVideo\nFormat                           : MPEG-4 Visual\nBit rate                         : 863 Kbps\nWidth                            : 672 pixels\nHeight                           : 368 pixels\nDisplay aspect ratio             : 16:9\nFrame rate                       : 25.000 fps\nResolution                       : 8 bits\nColorimetry                      : 4:2:0\nScan type                        : Progressive\nBits/(Pixel*Frame)               : 0.140\nStream size                      : 580 MiB (83%)\n\nAudio\nFormat                           : MPEG Audio\nMode                             : Joint stereo\nCodec ID/Hint                    : MP3\nBit rate mode                    : Variable\nBit rate                         : 166 Kbps\nNominal bit rate                 : 160 Kbps\nChannel(s)                       : 2 channels\nSampling rate                    : 48.0 KHz\nStream size                      : 111 MiB (16%)\n","torrent":{"xt":"urn:btih:de3f1853131272c7b62f48e16023707b9efb247f","amp;dn":"The+Neighbor+2007","amp;tr":["udp%3A%2F%2Ftracker.openbittorrent.com%3A80","udp%3A%2F%2Fopen.demonii.com%3A1337","udp%3A%2F%2Ftracker.coppersurfer.tk%3A6969","udp%3A%2F%2Fexodus.desync.com%3A6969"],"infoHash":"de3f1853131272c7b62f48e16023707b9efb247f","infoHashBuffer":{"type":"Buffer","data":[222,63,24,83,19,18,114,199,182,47,72,225,96,35,112,123,158,251,36,127]},"announce":[],"urlList":[]}}